<?xml version="1.0" encoding="iso-8859-1"?>
<!-- Uploaded to: SVG Repo, www.svgrepo.com, Generator: SVG Repo Mixer Tools -->
<svg height="800px" width="800px" version="1.1" id="Layer_1" xmlns="http://www.w3.org/2000/svg" xmlns:xlink="http://www.w3.org/1999/xlink" 
	 viewBox="0 0 512 512" xml:space="preserve">
<path style="fill:#47CEAC;" d="M512,256.006C512,397.402,397.394,512.004,256.004,512C114.606,512.004,0,397.402,0,256.006
	C-0.007,114.61,114.606,0,256.004,0C397.394,0,512,114.614,512,256.006z"/>
<g>
	<path style="fill:#36BB9A;" d="M502.096,185.526c-0.347-0.349-86.499-86.511-87.031-87.03
		c-16.858-17.273-40.349-28.043-66.336-28.043c-51.158,0-92.774,41.615-92.774,92.773c0,25.984,10.768,49.471,28.037,66.33
		c0.526,0.538,176.222,176.234,176.755,176.755c0.468,0.482,0.943,0.955,1.424,1.423C493.473,365.273,512,312.813,512,256.005
		C512,231.55,508.499,207.924,502.096,185.526z"/>
	<path style="fill:#36BB9A;" d="M455.728,416.071c-0.438-0.449-67.636-67.735-68.214-68.214c-0.544-0.515-1.013-1.111-1.588-1.588
		c-0.547-0.518-1.019-1.117-1.597-1.597c-0.544-0.515-225.558-225.652-226.141-226.135c-5.769-5.441-13.196-8.866-21.211-9.367
		c-9.807-0.477-19.365,3.035-26.297,9.974L82.49,147.402c-15.659,15.69-38.331,65.957,88.983,193.535
		c0.256,0.256,0.494,0.478,0.75,0.733c0.29,0.291,0.55,0.568,0.843,0.86c0.256,0.256,157.358,157.358,157.649,157.65
		c0.194,0.194,0.38,0.371,0.569,0.556C380.883,485.498,424.026,455.578,455.728,416.071z"/>
</g>
<g>
	<path style="fill:#F6F6F6;" d="M389.664,350.645l-44.129-34.435c-12.473-9.709-29.822-9.642-42.204,0.159l-9.807,7.769
		c-7.452,5.882-18.127,5.262-24.839-1.45l-78.949-79.116c-6.719-6.742-7.339-17.463-1.45-24.938l7.754-9.838
		c9.777-12.389,9.838-29.762,0.159-42.242l-34.359-44.227c-6.017-7.754-15.077-12.548-24.862-13.159
		c-9.807-0.476-19.365,3.035-26.297,9.973l-28.192,28.259c-15.659,15.689-38.331,65.956,88.983,193.535
		c82.959,83.148,133.588,100.603,161.455,100.61h0.007c16.783,0,26.508-6.213,31.717-11.43l28.191-28.252
		c6.924-6.939,10.547-16.534,9.936-26.326C402.175,365.745,397.395,356.671,389.664,350.645z M381.896,390.947l-28.191,28.252
		c-3.133,3.14-9.286,6.885-20.77,6.885h-0.007c-20.415-0.007-67.119-12.487-150.508-96.065
		c-96.073-96.276-107.979-152.667-88.984-171.7l28.191-28.259c3.518-3.525,8.283-5.489,13.228-5.489c0.385,0,0.77,0.007,1.163,0.03
		c5.353,0.34,10.314,2.96,13.605,7.211l34.359,44.227c5.315,6.848,5.278,16.383-0.083,23.186l-7.754,9.838
		c-10.736,13.62-9.603,33.145,2.642,45.428l78.949,79.123c12.261,12.276,31.77,13.409,45.382,2.65l9.814-7.769
		c6.765-5.376,16.262-5.406,23.088-0.091l44.129,34.428c4.243,3.307,6.863,8.29,7.195,13.665
		C387.686,381.872,385.693,387.135,381.896,390.947z"/>
	<path style="fill:#F6F6F6;" d="M348.729,70.453c-51.158,0-92.773,41.615-92.773,92.773S297.57,256,348.729,256
		s92.773-41.615,92.773-92.773S399.887,70.453,348.729,70.453z M348.729,240.538c-42.627,0-77.311-34.685-77.311-77.311
		s34.685-77.311,77.311-77.311s77.311,34.685,77.311,77.311S391.356,240.538,348.729,240.538z"/>
	<path style="fill:#F6F6F6;" d="M385.119,126.836c-3.02-3.02-7.913-3.02-10.932,0l-25.458,25.458l-25.458-25.458
		c-3.02-3.02-7.913-3.02-10.932,0c-3.02,3.02-3.02,7.913,0,10.932l25.458,25.458l-25.458,25.458c-3.02,3.02-3.02,7.913,0,10.932
		c1.51,1.51,3.488,2.265,5.467,2.265c1.978,0,3.956-0.755,5.466-2.265l25.458-25.458l25.458,25.458
		c1.51,1.51,3.488,2.265,5.467,2.265c1.978,0,3.956-0.755,5.467-2.265c3.02-3.02,3.02-7.913,0-10.932l-25.458-25.458l25.458-25.458
		C388.14,134.749,388.14,129.856,385.119,126.836z"/>
</g>
</svg>